<?xml version="1.0" standalone="no"?>
<!DOCTYPE svg PUBLIC "-//W3C//DTD SVG 1.1//EN" "http://www.w3.org/Graphics/SVG/1.1/DTD/svg11.dtd" >
<svg xmlns="http://www.w3.org/2000/svg">
<metadata>Generated by IcoMoon</metadata>
<defs>
<font id="icomoon" horiz-adv-x="1024">
<font-face units-per-em="1024" ascent="960" descent="-64" />
<missing-glyph horiz-adv-x="1024" />
<glyph unicode="&#x20;" horiz-adv-x="512" d="" />
<glyph unicode="&#xe900;" glyph-name="login" horiz-adv-x="956" d="M648.533 413.867h-580.267c-20.48 0-34.133 13.653-34.133 34.133s13.653 34.133 34.133 34.133h580.267c13.653 0 34.133-13.653 34.133-34.133s-20.48-34.133-34.133-34.133zM505.173 277.333c-6.827 0-20.48 0-27.307 6.827-13.653 13.653-13.653 34.133 0 47.787l116.053 116.053-109.227 116.053c-13.653 13.653-13.653 34.133-6.827 47.787 13.653 13.653 34.133 13.653 47.787 0l143.36-136.533c6.827-6.827 13.653-20.48 13.653-27.307s-6.827-20.48-13.653-27.307l-143.36-136.533c0-6.827-13.653-6.827-20.48-6.827zM703.147-29.867h-232.107c-116.053 0-211.627 95.573-211.627 211.627v47.787c0 20.48 13.653 34.133 34.133 34.133s34.133-13.653 34.133-34.133v-47.787c0-75.093 61.44-143.36 143.36-143.36h232.107c81.92 0 143.36 61.44 143.36 143.36v532.48c0 75.093-61.44 143.36-143.36 143.36h-232.107c-81.92 0-143.36-61.44-143.36-143.36v-47.787c0-20.48-13.653-34.133-34.133-34.133s-34.133 20.48-34.133 40.96v40.96c0 116.053 95.573 211.627 211.627 211.627h232.107c116.053 0 211.627-95.573 211.627-211.627v-532.48c0-116.053-95.573-211.627-211.627-211.627z" />
<glyph unicode="&#xe901;" glyph-name="newest" horiz-adv-x="1152" d="M832-44.8c-25.6 0-51.2 19.2-51.2 51.2v742.4c0 25.6 19.2 51.2 51.2 51.2s51.2-19.2 51.2-51.2v-748.8c0-25.6-25.6-44.8-51.2-44.8zM832-51.2v0c-12.8 0-25.6 6.4-32 12.8l-224 230.4c-19.2 19.2-19.2 51.2 0 70.4s51.2 19.2 70.4 0l192-192 192 192c19.2 19.2 51.2 19.2 70.4 0s19.2-51.2 0-70.4l-224-224c-19.2-12.8-32-19.2-44.8-19.2zM288 102.4c-25.6 0-51.2 19.2-51.2 51.2v742.4c0 25.6 19.2 51.2 51.2 51.2s44.8-25.6 44.8-51.2v-748.8c0-25.6-19.2-44.8-44.8-44.8zM512 620.8c-12.8 0-25.6 6.4-32 19.2l-192 192-192-192c-19.2-19.2-44.8-19.2-64 0-19.2 12.8-19.2 44.8 0 64l224 224c19.2 19.2 51.2 19.2 70.4 0l217.6-224c19.2-19.2 19.2-51.2 0-70.4-6.4-6.4-19.2-12.8-32-12.8z" />
<glyph unicode="&#xe902;" glyph-name="filter" d="M435.2-51.2c-12.8 0-25.6 0-32 6.4-19.2 12.8-32 32-32 57.6v230.4c0 51.2-19.2 102.4-57.6 140.8 0 0 0 0-6.4 6.4l-243.2 262.4c-32 32-51.2 70.4-51.2 115.2v51.2c0 70.4 57.6 128 128 128h742.4c70.4 0 128-57.6 128-128v-51.2c0-44.8-19.2-89.6-44.8-121.6l-243.2-256c-38.4-38.4-57.6-89.6-57.6-147.2v-115.2c0-38.4-25.6-76.8-57.6-102.4l-134.4-76.8c-19.2 6.4-32 0-38.4 0zM371.2 460.8c0 0 0 0 0 0 57.6-57.6 89.6-134.4 89.6-217.6v-179.2l96 51.2c6.4 0 6.4 6.4 6.4 12.8v115.2c0 76.8 32 153.6 83.2 211.2l243.2 256c12.8 12.8 19.2 32 19.2 51.2v57.6c0 19.2-12.8 32-32 32h-736c-12.8 0-25.6-19.2-25.6-32v-51.2c0-19.2 6.4-38.4 19.2-51.2l236.8-256z" />
<glyph unicode="&#xe903;" glyph-name="heard" horiz-adv-x="1092" d="M539.307-50.347c-6.827 0-13.653 0-27.307 6.827s-382.293 211.627-471.040 491.52c0 0 0 0 0 0-54.613 177.493 6.827 409.6 218.453 471.040 88.747 40.96 191.147 27.307 279.893-27.307 81.92 47.787 191.147 61.44 279.893 34.133 211.627-68.267 273.067-293.547 218.453-471.040-88.747-279.893-457.387-484.693-471.040-491.52s-20.48-13.653-27.307-13.653zM136.533 482.133c68.267-204.8 320.853-368.64 402.773-423.253 75.093 54.613 334.507 225.28 395.947 423.253 40.96 129.707 6.827 293.547-150.187 348.16-75.093 20.48-163.84 6.827-218.453-34.133-20.48-13.653-40.96-13.653-61.44 0-61.44 40.96-143.36 54.613-218.453 34.133-157.013-47.787-191.147-218.453-150.187-348.16v0z" />
<glyph unicode="&#xe904;" glyph-name="search1" d="M484.693 24.747c-245.76 0-450.56 204.8-450.56 450.56s204.8 450.56 450.56 450.56 450.56-204.8 450.56-450.56c0-245.76-204.8-450.56-450.56-450.56zM484.693 857.6c-211.627 0-382.293-170.667-382.293-382.293s170.667-382.293 382.293-382.293 382.293 170.667 382.293 382.293c0 211.627-170.667 382.293-382.293 382.293zM935.253-29.867c-6.827 0-20.48 0-27.307 6.827l-157.013 163.84c-13.653 13.653-13.653 34.133 0 47.787s34.133 13.653 47.787 0l163.84-163.84c13.653-13.653 13.653-34.133 0-47.787-13.653-6.827-20.48-6.827-27.307-6.827z" />
<glyph unicode="&#xe905;" glyph-name="vector" d="M93.391 179.2l192.492 192.492 139.274-139.225 225.033 224.985 88.271-88.222v246.154h-246.154l88.27-88.271-155.421-155.421-139.225 139.273-243.496-243.495c-28.065 63.015-42.525 131.239-42.437 200.221 0 271.901 220.406 492.308 492.308 492.308s492.307-220.407 492.307-492.308c0-271.901-220.406-492.308-492.307-492.308-77.884-0.047-154.664 18.4-224.020 53.839-69.356 35.43-129.3 86.835-174.898 149.977z" />
<glyph unicode="&#xe906;" glyph-name="tw" horiz-adv-x="1331" d="M855.34 836.895c-46.753 0.008-91.639-18.339-125.001-51.090-33.362-32.753-52.533-77.294-53.388-124.037l-1.722-96.884c-0.1-5.202-1.299-10.323-3.519-15.028s-5.409-8.889-9.358-12.276-8.571-5.899-13.561-7.375c-4.989-1.475-10.234-1.878-15.39-1.183l-96.022 13.041c-126.348 17.224-247.407 75.415-363.543 172.175-36.785-203.609 35.062-344.658 208.098-453.475l107.464-67.541c5.106-3.208 9.348-7.62 12.355-12.847s4.687-11.112 4.894-17.14c0.206-6.026-1.068-12.013-3.71-17.434s-6.572-10.111-11.447-13.662l-97.928-71.54c58.252-3.629 113.552-1.046 159.442 8.059 290.218 57.945 483.183 276.316 483.183 636.537 0 29.403-62.249 131.7-180.846 131.7zM553.926 664.042c1.073 59.296 19.616 116.957 53.304 165.764s81.028 86.593 136.089 108.624c55.062 22.031 115.399 27.329 173.456 15.232 58.059-12.098 111.26-41.054 152.936-83.243 43.735 0.308 80.957-10.765 164.178 39.676-20.603-100.881-30.751-144.679-74.68-204.9 0-470.083-288.922-698.665-582.093-757.164-201.026-40.109-493.335 25.774-577.116 113.245 42.69 3.322 216.157 21.961 316.423 95.346-84.826 55.916-422.472 254.602-200.594 788.782 104.142-121.611 209.76-204.408 316.793-248.328 71.233-29.219 88.702-28.603 121.366-33.095l-0.061 0.061z" />
<glyph unicode="&#xe907;" glyph-name="shield" horiz-adv-x="887" d="M418.909 960l382.467-84.992c21.272-4.748 36.441-23.598 36.441-45.428v-464.85c0-93.37-46.681-180.595-124.368-232.354l-294.539-196.376-294.539 196.376c-77.731 51.808-124.37 138.984-124.37 232.308v464.896c0 21.83 15.174 40.68 36.445 45.428l382.464 84.992zM626.13 623.849l-230.4-230.354-131.63 131.63-65.815-65.815 197.492-197.494 296.216 296.217-65.862 65.815z" />
<glyph unicode="&#xe908;" glyph-name="share" d="M646.774 798.32h107.787c28.587 0 56.006-11.356 76.218-31.57s31.571-47.63 31.571-76.216v-440.309c35.974-12.714 66.292-37.736 85.599-70.644 19.306-32.904 26.364-71.58 19.913-109.184s-25.986-71.719-55.154-96.311c-29.176-24.6-66.095-38.085-104.251-38.085s-75.081 13.485-104.251 38.085c-29.171 24.592-48.707 58.707-55.157 96.311s0.603 76.28 19.911 109.184c19.308 32.908 49.629 57.93 85.602 70.644v440.309h-107.787v-161.68l-242.519 215.573 242.519 215.573v-161.68zM107.841 591.908c-35.973 12.714-66.294 37.736-85.602 70.644s-26.361 71.582-19.911 109.187c6.45 37.605 25.986 71.719 55.157 96.312s66.096 38.082 104.25 38.082c38.153 0 75.080-13.489 104.25-38.082s48.707-58.707 55.157-96.312c6.45-37.605-0.603-76.279-19.911-109.187s-49.629-57.93-85.602-70.644v-341.684c35.973-12.714 66.294-37.736 85.602-70.644 19.309-32.904 26.361-71.58 19.911-109.184s-25.986-71.719-55.157-96.311c-29.17-24.6-66.096-38.085-104.25-38.085s-75.080 13.485-104.25 38.085c-29.17 24.592-48.707 58.707-55.157 96.311s0.603 76.28 19.911 109.184c19.308 32.908 49.629 57.93 85.602 70.644v341.684zM161.734 690.534c14.293 0 28.001 5.678 38.108 15.785s15.785 23.815 15.785 38.109c0 14.293-5.678 28.001-15.785 38.109s-23.814 15.785-38.108 15.785c-14.293 0-28.002-5.678-38.109-15.785s-15.785-23.815-15.785-38.109c0-14.293 5.678-28.002 15.785-38.109s23.815-15.785 38.109-15.785zM161.734 43.811c14.293 0 28.001 5.679 38.108 15.785s15.785 23.82 15.785 38.109c0 14.297-5.678 28.002-15.785 38.109s-23.814 15.785-38.108 15.785c-14.293 0-28.002-5.679-38.109-15.785s-15.785-23.812-15.785-38.109c0-14.289 5.678-28.002 15.785-38.109s23.815-15.785 38.109-15.785zM808.456 43.811c14.289 0 28.002 5.679 38.109 15.785s15.785 23.82 15.785 38.109c0 14.297-5.679 28.002-15.785 38.109s-23.82 15.785-38.109 15.785c-14.297 0-28.002-5.679-38.109-15.785s-15.785-23.812-15.785-38.109c0-14.289 5.678-28.002 15.785-38.109s23.813-15.785 38.109-15.785z" />
<glyph unicode="&#xe909;" glyph-name="play" horiz-adv-x="922" d="M913.065 447.38c0-32.353-10.179-64.824-30.546-90.829-3.814-5.105-21.632-26.132-35.635-39.818l-7.634-7.465c-106.911-113.347-372.911-283.807-507.818-338.432 0-1.244-80.182-33.715-118.364-34.836h-5.091c-58.546 0-113.273 32.225-141.273 84.48-15.272 28.744-29.273 112.108-30.545 113.229-11.455 74.778-19.091 189.245-19.091 314.913 0 131.763 7.636 251.334 21.636 324.744 0 1.244 14 68.432 22.909 90.829 14 32.225 39.455 59.723 71.273 77.142 25.454 12.318 52.182 18.663 80.182 18.663 29.272-1.369 84-19.908 105.636-28.617 142.546-54.746 414.911-233.914 519.272-343.407 17.818-17.42 36.91-38.696 41.999-43.548 21.637-27.373 33.091-60.966 33.091-97.047z" />
<glyph unicode="&#xe90a;" glyph-name="load" d="M846.694 60.57c-92.906-80.501-211.762-124.738-334.694-124.57-282.778 0-512 229.222-512 512s229.222 512 512 512c282.778 0 512-229.222 512-512 0-109.363-34.304-210.739-92.672-293.888l-163.328 293.888h153.6c-0.007 94.403-32.622 185.904-92.328 259.027s-142.841 123.377-235.335 142.261c-92.494 18.884-188.672 5.24-272.264-38.626s-149.466-115.259-186.478-202.102c-37.012-86.844-42.892-183.807-16.642-274.486s83.016-169.509 160.696-223.152c77.68-53.643 171.505-78.804 265.603-71.234s182.692 47.411 250.796 112.786l51.046-91.904z" />
<glyph unicode="&#xe90b;" glyph-name="ins" d="M512 601.6c-40.737 0-79.806-16.183-108.611-44.989s-44.989-67.874-44.989-108.611c0-40.737 16.183-79.806 44.989-108.611s67.874-44.989 108.611-44.989c40.737 0 79.806 16.183 108.611 44.989s44.989 67.874 44.989 108.611c0 40.737-16.183 79.806-44.989 108.611s-67.874 44.989-108.611 44.989zM512 704c67.895 0 133.010-26.971 181.019-74.981s74.981-113.124 74.981-181.019c0-67.895-26.971-133.010-74.981-181.019s-113.124-74.981-181.019-74.981c-67.895 0-133.010 26.971-181.019 74.981s-74.981 113.124-74.981 181.019c0 67.895 26.971 133.010 74.981 181.019s113.124 74.981 181.019 74.981zM844.8 716.8c0-16.974-6.743-33.253-18.745-45.255s-28.281-18.745-45.255-18.745c-16.974 0-33.253 6.743-45.255 18.745s-18.745 28.281-18.745 45.255c0 16.974 6.743 33.253 18.745 45.255s28.281 18.745 45.255 18.745c16.974 0 33.253-6.743 45.255-18.745s18.745-28.281 18.745-45.255zM512 857.6c-126.669 0-147.354-0.358-206.285-2.97-40.141-1.894-67.072-7.27-92.058-16.998-22.221-8.602-38.246-18.893-55.296-35.994-16.026-15.483-28.347-34.385-36.045-55.296-9.728-25.088-15.104-51.968-16.947-92.058-2.662-56.525-2.97-76.288-2.97-206.285 0-126.669 0.358-147.354 2.97-206.285 1.894-40.090 7.27-67.072 16.947-92.006 8.704-22.272 18.944-38.298 35.942-55.296 17.254-17.203 33.28-27.494 55.296-35.994 25.293-9.779 52.224-15.206 92.16-17.050 56.525-2.662 76.288-2.97 206.285-2.97 126.669 0 147.354 0.358 206.285 2.97 40.038 1.894 67.021 7.27 92.006 16.947 22.17 8.653 38.298 18.944 55.296 35.942 17.254 17.254 27.546 33.28 36.045 55.296 9.728 25.242 15.155 52.224 16.998 92.16 2.662 56.525 2.97 76.288 2.97 206.285 0 126.669-0.358 147.354-2.97 206.285-1.894 40.038-7.27 67.072-16.998 92.058-7.714 20.89-20.019 39.784-35.994 55.296-15.476 16.033-34.38 28.356-55.296 36.045-25.088 9.728-52.019 15.104-92.058 16.947-56.525 2.662-76.288 2.97-206.285 2.97zM512 960c139.11 0 156.467-0.512 211.046-3.072 54.528-2.56 91.648-11.11 124.314-23.808 33.792-13.005 62.259-30.618 90.726-59.034 26.035-25.595 46.182-56.555 59.034-90.726 12.646-32.614 21.248-69.786 23.808-124.314 2.406-54.579 3.072-71.936 3.072-211.046s-0.512-156.467-3.072-211.046c-2.56-54.528-11.162-91.648-23.808-124.314-12.817-34.193-32.964-65.161-59.034-90.726-25.6-26.027-56.559-46.174-90.726-59.034-32.614-12.646-69.786-21.248-124.314-23.808-54.579-2.406-71.936-3.072-211.046-3.072s-156.467 0.512-211.046 3.072c-54.528 2.56-91.648 11.162-124.314 23.808-34.185 12.826-65.15 32.973-90.726 59.034-26.040 25.591-46.186 56.55-59.034 90.726-12.698 32.614-21.248 69.786-23.808 124.314-2.406 54.579-3.072 71.936-3.072 211.046s0.512 156.467 3.072 211.046c2.56 54.579 11.11 91.648 23.808 124.314 12.812 34.192 32.963 65.161 59.034 90.726 25.583 26.049 56.547 46.196 90.726 59.034 32.666 12.698 69.734 21.248 124.314 23.808 54.579 2.406 71.936 3.072 211.046 3.072z" />
<glyph unicode="&#xe90c;" glyph-name="in" horiz-adv-x="1109" d="M227.543 846.171c-0.015-30.174-12.017-59.106-33.364-80.432s-50.29-33.298-80.465-33.283c-30.174 0.015-59.106 12.017-80.432 33.364s-33.298 50.29-33.283 80.465c0.015 30.174 12.016 59.106 33.363 80.432s50.291 33.298 80.466 33.283c30.174-0.015 59.106-12.016 80.432-33.363s33.298-50.291 33.283-80.466zM230.956 648.209h-227.543v-712.209h227.543v712.209zM590.474 648.209h-226.406v-712.209h224.13v373.74c0 208.201 271.347 227.542 271.347 0v-373.74h224.7v451.104c0 350.985-401.616 337.901-496.047 165.537l2.276 95.568z" />
<glyph unicode="&#xe90d;" glyph-name="fire" horiz-adv-x="717" d="M357.179-64c94.737 0 185.595 37.634 252.585 104.624s104.624 157.848 104.624 252.585c0 41.246-10.955 80.824-23.814 117.641-79.396-78.444-139.693-117.641-180.986-117.641 190.274 333.396 85.73 476.279-200.037 666.791 23.814-238.139-133.168-346.446-197.084-406.6-52.137-49.041-88.339-112.614-103.911-182.478s-9.797-142.793 16.577-209.334c26.374-66.542 72.131-123.624 131.337-163.848 59.207-40.225 129.132-61.734 200.709-61.74zM390.995 782.11c154.362-130.977 155.124-232.757 35.864-441.701-36.244-63.488 9.62-142.455 82.73-142.455 32.768 0 65.917 9.525 100.923 28.338-10.376-39.197-29.71-75.449-56.48-105.904-26.768-30.455-60.242-54.279-97.784-69.598s-78.127-21.713-118.561-18.681c-40.434 3.033-79.611 15.411-114.447 36.158s-64.382 49.299-86.308 83.407-35.636 72.838-40.049 113.145c-4.413 40.306 0.591 81.086 14.618 119.13s36.694 72.312 66.216 100.105c6.001 5.621 36.435 32.626 37.768 33.817 20.194 18.098 36.817 34.148 53.248 51.723 58.583 62.774 100.686 132.405 122.213 212.516h0.048z" />
<glyph unicode="&#xe90e;" glyph-name="f" horiz-adv-x="597" d="M358.4 371.2h128l51.2 204.8h-179.2v102.4c0 52.736 0 102.4 102.4 102.4h76.8v172.032c-16.691 2.202-79.718 7.168-146.278 7.168-139.008 0-237.722-84.838-237.722-240.64v-143.36h-153.6v-204.8h153.6v-435.2h204.8v435.2z" />
<glyph unicode="&#xe90f;" glyph-name="dots" horiz-adv-x="945" d="M716.8 243.2c84.842 0 153.6-68.762 153.6-153.6 0-84.834-68.758-153.6-153.6-153.6-84.838 0-153.6 68.766-153.6 153.6 0 84.838 68.762 153.6 153.6 153.6zM204.8 448c113.152 0 204.8-91.648 204.8-204.8s-91.648-204.8-204.8-204.8c-113.152 0-204.8 91.648-204.8 204.8s91.648 204.8 204.8 204.8zM716.8 140.8c-28.262 0-51.2-22.938-51.2-51.2s22.938-51.2 51.2-51.2c28.262 0 51.2 22.938 51.2 51.2s-22.938 51.2-51.2 51.2zM204.8 345.6c-56.576 0-102.4-45.824-102.4-102.4s45.824-102.4 102.4-102.4c56.576 0 102.4 45.824 102.4 102.4s-45.824 102.4-102.4 102.4zM640 960c155.546 0 281.6-126.054 281.6-281.6s-126.054-281.6-281.6-281.6c-155.546 0-281.6 126.054-281.6 281.6s126.054 281.6 281.6 281.6zM640 857.6c-98.97 0-179.2-80.23-179.2-179.2s80.23-179.2 179.2-179.2c98.97 0 179.2 80.23 179.2 179.2s-80.23 179.2-179.2 179.2z" />
<glyph unicode="&#xe910;" glyph-name="diamond" horiz-adv-x="1331" d="M258.014 960h777.946c8.612 0.001 17.101-2.035 24.771-5.944 7.68-3.908 14.316-9.577 19.374-16.542l208.65-286.858c3.707-5.104 5.54-11.336 5.171-17.634s-2.908-12.276-7.188-16.912l-619.723-671.353c-4.91-5.307-11.725-8.449-18.949-8.736s-14.267 2.306-19.582 7.207c-0.382 0.328-207.393 224.585-621.251 672.882-4.279 4.637-6.818 10.614-7.186 16.912s1.458 12.531 5.167 17.634l208.648 286.858c5.064 6.966 11.704 12.634 19.378 16.542s16.164 5.945 24.775 5.944zM285.849 850.846l-152.816-210.122 513.953-556.686 513.954 556.686-152.818 210.122h-722.273z" />
<glyph unicode="&#xe911;" glyph-name="cup" horiz-adv-x="1195" d="M606.817 519.491v-65.17h158.020v-63.21h-379.257v63.21h158.025v65.17c-61.102 7.705-117.292 37.443-158.025 83.635s-63.209 105.66-63.21 167.245v189.629h505.681v-189.629c-0.006-61.586-22.477-121.054-63.215-167.245-40.732-46.192-96.922-75.93-158.020-83.635zM385.58 896.79v-126.42c0-50.293 19.979-98.526 55.541-134.089s83.796-55.541 134.088-55.541c50.295 0 98.526 19.979 134.087 55.541 35.567 35.563 55.541 83.796 55.541 134.089v126.42h-379.257zM227.556 896.79h63.21v-126.42h-63.21v126.42zM859.654 896.79h63.209v-126.42h-63.209v126.42z" />
<glyph unicode="&#xe912;" glyph-name="corona" horiz-adv-x="1229" d="M119.284 623.035l68.305-580.807h767.185l68.305 580.807-212.988-141.976-238.909 334.462-238.908-334.462-212.989 141.976zM82.582 775.208l223.028-148.721 222.337 311.251c4.913 6.885 11.399 12.498 18.919 16.37s15.857 5.892 24.315 5.892c8.459 0 16.796-2.020 24.315-5.892s14.007-9.485 18.92-16.37l222.337-311.251 223.076 148.721c8.448 5.617 18.319 8.7 28.457 8.884s20.122-2.537 28.764-7.845c8.643-5.306 15.585-12.975 19.999-22.101 4.424-9.126 6.144-19.327 4.956-29.397l-87.276-741.849c-1.516-12.921-7.731-24.832-17.449-33.478-9.728-8.645-22.279-13.421-35.289-13.423h-861.622c-13.009 0.002-25.565 4.778-35.287 13.423s-15.933 20.557-17.455 33.478l-87.267 741.902c-1.179 10.066 0.546 20.259 4.973 29.377 4.426 9.117 11.369 16.777 20.008 22.077 8.639 5.299 18.614 8.017 28.747 7.831 10.133-0.185 20.002-3.267 28.441-8.879h0.053zM571.181 254.686c-28.173 0-55.193 11.192-75.114 31.114s-31.114 46.941-31.114 75.114c0 28.174 11.192 55.194 31.114 75.116s46.941 31.113 75.114 31.113c28.174 0 55.194-11.191 75.116-31.113s31.113-46.941 31.113-75.116c0-28.173-11.191-55.193-31.113-75.114s-46.941-31.114-75.116-31.114z" />
<glyph unicode="&#xe913;" glyph-name="arrow-right1" horiz-adv-x="2133" d="M2133.333 448l-853.333 492.672v-985.344l853.333 492.672zM0 362.667h1365.333v170.667h-1365.333v-170.667z" />
</font>
</defs>
</svg>
